<?xml version="1.0" encoding="UTF-8" standalone="no"?>
<svg
   xmlns:dc="http://purl.org/dc/elements/1.1/"
   xmlns:cc="http://creativecommons.org/ns#"
   xmlns:rdf="http://www.w3.org/1999/02/22-rdf-syntax-ns#"
   xmlns:svg="http://www.w3.org/2000/svg"
   xmlns="http://www.w3.org/2000/svg"
   height="230"
   width="230"
   version="1.1"
   viewBox="0 0 229.99999 230"
   data-name="Layer 1"
   id="Layer_1">
  <metadata
     id="metadata1978">
    <rdf:RDF>
      <cc:Work
         rdf:about="">
        <dc:format>image/svg+xml</dc:format>
        <dc:type
           rdf:resource="http://purl.org/dc/dcmitype/StillImage" />
        <dc:title>NGINX Logo White Endorsement RGB</dc:title>
      </cc:Work>
    </rdf:RDF>
  </metadata>
  <defs
     id="defs1937">
    <style
       id="style1935">.cls-1{fill:#999;}.cls-2{fill:#fff;}.cls-3{fill:#009639;}</style>
  </defs>
  <title
     id="title1939">NGINX Logo White Endorsement RGB</title>
  <path
     style="fill:#009639"
     id="path1967"
     d="m 29.153462,164.56536 a 10.01465,10.01465 0 0 0 3.76239,3.73356 l 76.967998,44.43752 0.002,-0.002 a 10.09962,10.09962 0 0 0 10.23005,0 l 76.97043,-44.43752 a 10.09339,10.09339 0 0 0 5.11261,-8.8558 v -88.875 l -0.002,-0.002 a 10.09665,10.09665 0 0 0 -5.115,-8.85819 L 120.11152,17.267569 v -0.002 a 10.08632,10.08632 0 0 0 -10.22285,0 v 0.002 L 32.920662,61.70509 a 10.09234,10.09234 0 0 0 -5.11743,8.85819 l -0.002,0.002 v 88.875 a 10.0346,10.0346 0 0 0 1.35023,5.12464"
     class="cls-3" />
  <g
     transform="matrix(5.1380599,0,0,5.1380599,-2035.722,-945.77487)"
     id="g2647">
    <g
       transform="translate(406.5864,194.45436)"
       id="g2629">
      <path
         style="fill:#fefefe;fill-opacity:1"
         d="m 13,12 a 1,1 0 1 1 1,1 1,1 0 0 1 -1,-1 z m -3,1 a 1,1 0 1 0 -1,-1 1,1 0 0 0 1,1 z M 21,12.22 V 18 a 5,5 0 0 1 -5,5 H 8 A 5,5 0 0 1 3,18 V 12.22 A 3,3 0 0 1 4.58,7 3.94,3.94 0 0 1 4,5 4,4 0 0 1 8,1 h 8 A 4,4 0 0 1 20,5 3.94,3.94 0 0 1 19.42,7 3,3 0 0 1 21,12.22 Z M 6,5 a 2,2 0 0 0 2,2 h 8 A 2,2 0 0 0 16,3 H 8 A 2,2 0 0 0 6,5 Z m -2,5 a 1,1 0 0 0 1,1 h 2 a 1,1 0 0 1 1,1 v 3 a 2,2 0 0 0 2,2 h 4 a 2,2 0 0 0 2,-2 v -3 a 1,1 0 0 1 1,-1 h 2 A 1,1 0 0 0 19,9 H 5 a 1,1 0 0 0 -1,1 z m 15,3 h -1 v 2 a 4,4 0 0 1 -4,4 H 10 A 4,4 0 0 1 6,15 V 13 H 5 v 5 a 3,3 0 0 0 3,3 h 8 a 3,3 0 0 0 3,-3 z"
         id="path2627" />
    </g>
  </g>
</svg>
